<mxfile host="app.diagrams.net" agent="Mozilla/5.0 (Windows NT 10.0; Win64; x64) AppleWebKit/537.36 (KHTML, like Gecko) Chrome/131.0.0.0 Safari/537.36" version="25.0.3">
  <diagram name="第 1 页" id="zmdPP1wgx6uvDDTjzuDO">
    <mxGraphModel dx="1343" dy="1188" grid="1" gridSize="10" guides="1" tooltips="1" connect="1" arrows="1" fold="1" page="1" pageScale="1" pageWidth="1654" pageHeight="1169" math="0" shadow="0">
      <root>
        <mxCell id="0" />
        <mxCell id="1" parent="0" />
        <mxCell id="j2DwBCPqLrHwJMjsTWbb-1" value="&lt;font face=&quot;Times New Roman&quot; style=&quot;font-size: 24px;&quot;&gt;input&lt;/font&gt;" style="rounded=0;whiteSpace=wrap;html=1;labelBackgroundColor=none;" vertex="1" parent="1">
          <mxGeometry x="245" y="640" width="190" height="50" as="geometry" />
        </mxCell>
        <mxCell id="j2DwBCPqLrHwJMjsTWbb-2" value="" style="endArrow=classic;html=1;rounded=0;exitX=0.5;exitY=0;exitDx=0;exitDy=0;entryX=0.5;entryY=1;entryDx=0;entryDy=0;labelBackgroundColor=none;fontColor=default;" edge="1" parent="1" source="j2DwBCPqLrHwJMjsTWbb-1" target="j2DwBCPqLrHwJMjsTWbb-7">
          <mxGeometry width="50" height="50" relative="1" as="geometry">
            <mxPoint x="430" y="740" as="sourcePoint" />
            <mxPoint x="325" y="600" as="targetPoint" />
            <Array as="points" />
          </mxGeometry>
        </mxCell>
        <mxCell id="j2DwBCPqLrHwJMjsTWbb-3" style="edgeStyle=orthogonalEdgeStyle;rounded=0;orthogonalLoop=1;jettySize=auto;html=1;exitX=0.5;exitY=1;exitDx=0;exitDy=0;labelBackgroundColor=none;fontColor=default;" edge="1" parent="1" source="j2DwBCPqLrHwJMjsTWbb-1" target="j2DwBCPqLrHwJMjsTWbb-1">
          <mxGeometry relative="1" as="geometry" />
        </mxCell>
        <mxCell id="j2DwBCPqLrHwJMjsTWbb-7" value="&lt;font face=&quot;Times New Roman&quot;&gt;&lt;span style=&quot;font-size: 24px;&quot;&gt;ST-Residual Down Block&lt;/span&gt;&lt;/font&gt;" style="rounded=0;whiteSpace=wrap;html=1;labelBackgroundColor=none;" vertex="1" parent="1">
          <mxGeometry x="160" y="550" width="360" height="50" as="geometry" />
        </mxCell>
        <mxCell id="j2DwBCPqLrHwJMjsTWbb-9" value="" style="endArrow=classic;html=1;rounded=0;exitX=0.5;exitY=0;exitDx=0;exitDy=0;entryX=0.5;entryY=1;entryDx=0;entryDy=0;labelBackgroundColor=none;fontColor=default;" edge="1" parent="1">
          <mxGeometry width="50" height="50" relative="1" as="geometry">
            <mxPoint x="339.57" y="550" as="sourcePoint" />
            <mxPoint x="339.57" y="510" as="targetPoint" />
            <Array as="points" />
          </mxGeometry>
        </mxCell>
        <mxCell id="j2DwBCPqLrHwJMjsTWbb-10" value="&lt;font face=&quot;Times New Roman&quot;&gt;&lt;span style=&quot;font-size: 24px;&quot;&gt;ST-Residual Middel Block&lt;/span&gt;&lt;/font&gt;" style="rounded=0;whiteSpace=wrap;html=1;labelBackgroundColor=none;" vertex="1" parent="1">
          <mxGeometry x="245" y="460" width="190" height="50" as="geometry" />
        </mxCell>
        <mxCell id="j2DwBCPqLrHwJMjsTWbb-13" value="" style="endArrow=classic;html=1;rounded=0;entryX=0.5;entryY=1;entryDx=0;entryDy=0;labelBackgroundColor=none;fontColor=default;" edge="1" parent="1">
          <mxGeometry width="50" height="50" relative="1" as="geometry">
            <mxPoint x="340" y="460" as="sourcePoint" />
            <mxPoint x="339.57" y="420" as="targetPoint" />
            <Array as="points" />
          </mxGeometry>
        </mxCell>
        <mxCell id="j2DwBCPqLrHwJMjsTWbb-14" value="&lt;font face=&quot;Times New Roman&quot;&gt;&lt;span style=&quot;font-size: 24px;&quot;&gt;ST-Residual Up Block&lt;/span&gt;&lt;/font&gt;" style="rounded=0;whiteSpace=wrap;html=1;labelBackgroundColor=none;" vertex="1" parent="1">
          <mxGeometry x="160" y="370" width="360" height="50" as="geometry" />
        </mxCell>
        <mxCell id="j2DwBCPqLrHwJMjsTWbb-15" value="" style="endArrow=classic;html=1;rounded=0;exitX=0.5;exitY=0;exitDx=0;exitDy=0;entryX=0.5;entryY=1;entryDx=0;entryDy=0;labelBackgroundColor=none;fontColor=default;" edge="1" parent="1">
          <mxGeometry width="50" height="50" relative="1" as="geometry">
            <mxPoint x="339.57" y="370" as="sourcePoint" />
            <mxPoint x="339.57" y="330" as="targetPoint" />
            <Array as="points" />
          </mxGeometry>
        </mxCell>
        <mxCell id="j2DwBCPqLrHwJMjsTWbb-16" value="&lt;font face=&quot;Times New Roman&quot;&gt;&lt;span style=&quot;font-size: 24px;&quot;&gt;FC&lt;/span&gt;&lt;/font&gt;" style="rounded=0;whiteSpace=wrap;html=1;labelBackgroundColor=none;" vertex="1" parent="1">
          <mxGeometry x="160" y="280" width="360" height="50" as="geometry" />
        </mxCell>
        <mxCell id="j2DwBCPqLrHwJMjsTWbb-17" value="" style="endArrow=classic;html=1;rounded=0;exitX=0.5;exitY=0;exitDx=0;exitDy=0;entryX=0.5;entryY=1;entryDx=0;entryDy=0;labelBackgroundColor=none;fontColor=default;" edge="1" parent="1">
          <mxGeometry width="50" height="50" relative="1" as="geometry">
            <mxPoint x="339.57" y="280" as="sourcePoint" />
            <mxPoint x="339.57" y="240" as="targetPoint" />
            <Array as="points" />
          </mxGeometry>
        </mxCell>
        <mxCell id="j2DwBCPqLrHwJMjsTWbb-18" value="&lt;font face=&quot;Times New Roman&quot;&gt;&lt;span style=&quot;font-size: 24px;&quot;&gt;output&lt;/span&gt;&lt;/font&gt;" style="rounded=0;whiteSpace=wrap;html=1;labelBackgroundColor=none;" vertex="1" parent="1">
          <mxGeometry x="160" y="190" width="360" height="50" as="geometry" />
        </mxCell>
        <mxCell id="j2DwBCPqLrHwJMjsTWbb-20" value="" style="endArrow=classic;startArrow=classic;html=1;rounded=0;exitX=0.884;exitY=0.021;exitDx=0;exitDy=0;exitPerimeter=0;entryX=0.885;entryY=1.035;entryDx=0;entryDy=0;entryPerimeter=0;labelBackgroundColor=none;fontColor=default;" edge="1" parent="1">
          <mxGeometry width="50" height="50" relative="1" as="geometry">
            <mxPoint x="200" y="549" as="sourcePoint" />
            <mxPoint x="201" y="420" as="targetPoint" />
          </mxGeometry>
        </mxCell>
        <mxCell id="j2DwBCPqLrHwJMjsTWbb-21" value="" style="endArrow=classic;html=1;rounded=0;labelBackgroundColor=none;fontColor=default;" edge="1" parent="1">
          <mxGeometry width="50" height="50" relative="1" as="geometry">
            <mxPoint x="480" y="550" as="sourcePoint" />
            <mxPoint x="480" y="420" as="targetPoint" />
          </mxGeometry>
        </mxCell>
        <mxCell id="j2DwBCPqLrHwJMjsTWbb-22" value="g&lt;br&gt;&lt;br&gt;&lt;br&gt;&lt;br&gt;n" style="rounded=0;whiteSpace=wrap;html=1;labelBackgroundColor=none;" vertex="1" parent="1">
          <mxGeometry x="80" y="430" width="40" height="110" as="geometry" />
        </mxCell>
        <mxCell id="j2DwBCPqLrHwJMjsTWbb-25" value="" style="endArrow=classic;html=1;rounded=0;exitX=1;exitY=0.5;exitDx=0;exitDy=0;labelBackgroundColor=none;fontColor=default;" edge="1" parent="1" source="j2DwBCPqLrHwJMjsTWbb-22" target="j2DwBCPqLrHwJMjsTWbb-10">
          <mxGeometry width="50" height="50" relative="1" as="geometry">
            <mxPoint x="320" y="480" as="sourcePoint" />
            <mxPoint x="370" y="430" as="targetPoint" />
          </mxGeometry>
        </mxCell>
        <mxCell id="j2DwBCPqLrHwJMjsTWbb-31" style="edgeStyle=orthogonalEdgeStyle;rounded=0;orthogonalLoop=1;jettySize=auto;html=1;exitX=0.5;exitY=1;exitDx=0;exitDy=0;labelBackgroundColor=none;fontColor=default;" edge="1" parent="1">
          <mxGeometry relative="1" as="geometry">
            <mxPoint x="805" y="740" as="sourcePoint" />
            <mxPoint x="805" y="740" as="targetPoint" />
          </mxGeometry>
        </mxCell>
        <mxCell id="j2DwBCPqLrHwJMjsTWbb-32" value="&lt;font face=&quot;Times New Roman&quot;&gt;&lt;span style=&quot;font-size: 24px;&quot;&gt;Temporal Conv&lt;/span&gt;&lt;/font&gt;" style="rounded=0;whiteSpace=wrap;html=1;labelBackgroundColor=none;" vertex="1" parent="1">
          <mxGeometry x="780" y="690" width="190" height="50" as="geometry" />
        </mxCell>
        <mxCell id="j2DwBCPqLrHwJMjsTWbb-33" value="" style="endArrow=classic;html=1;rounded=0;exitX=0.5;exitY=0;exitDx=0;exitDy=0;entryX=0.5;entryY=1;entryDx=0;entryDy=0;labelBackgroundColor=none;fontColor=default;" edge="1" parent="1" source="j2DwBCPqLrHwJMjsTWbb-32">
          <mxGeometry width="50" height="50" relative="1" as="geometry">
            <mxPoint x="965" y="790" as="sourcePoint" />
            <mxPoint x="875" y="650" as="targetPoint" />
            <Array as="points" />
          </mxGeometry>
        </mxCell>
        <mxCell id="j2DwBCPqLrHwJMjsTWbb-34" style="edgeStyle=orthogonalEdgeStyle;rounded=0;orthogonalLoop=1;jettySize=auto;html=1;exitX=0.5;exitY=1;exitDx=0;exitDy=0;labelBackgroundColor=none;fontColor=default;" edge="1" parent="1" source="j2DwBCPqLrHwJMjsTWbb-32" target="j2DwBCPqLrHwJMjsTWbb-32">
          <mxGeometry relative="1" as="geometry" />
        </mxCell>
        <mxCell id="j2DwBCPqLrHwJMjsTWbb-35" value="" style="endArrow=classic;html=1;rounded=0;labelBackgroundColor=none;fontColor=default;entryX=0.5;entryY=1;entryDx=0;entryDy=0;" edge="1" parent="1" target="j2DwBCPqLrHwJMjsTWbb-32">
          <mxGeometry width="50" height="50" relative="1" as="geometry">
            <mxPoint x="875" y="790" as="sourcePoint" />
            <mxPoint x="885" y="660" as="targetPoint" />
            <Array as="points" />
          </mxGeometry>
        </mxCell>
      </root>
    </mxGraphModel>
  </diagram>
</mxfile>
